<svg width="133" height="35" viewBox="0 0 133 35" fill="none" xmlns="http://www.w3.org/2000/svg">
<path opacity="0.998" fill-rule="evenodd" clip-rule="evenodd" d="M4.77167 0.00303971C14.879 -0.0050672 24.9822 0.00303971 35.0813 0.0273848C33.4704 2.95705 31.8716 5.89469 30.2853 8.8403C30.2773 8.8403 30.269 8.8403 30.261 8.8403C23.4443 8.8403 16.6277 8.8403 9.8111 8.8403C9.80306 8.8403 9.79479 8.8403 9.78675 8.8403C8.10865 5.89783 6.43687 2.95208 4.77167 0.00303971Z" fill="#ED731D"/>
<path opacity="0.996" fill-rule="evenodd" clip-rule="evenodd" d="M4.77163 0.00305176C6.43684 2.95209 8.10861 5.89784 9.78672 8.84031C6.52448 8.86436 3.26224 8.88871 0 8.91335C1.57853 5.93465 3.169 2.96456 4.77163 0.00305176Z" fill="#BACADA"/>
<path opacity="0.996" fill-rule="evenodd" clip-rule="evenodd" d="M35.0813 0.0274048C36.6727 2.98275 38.2551 5.94472 39.8285 8.91335C36.6474 8.88816 33.4664 8.86381 30.2853 8.84032C31.8716 5.89471 33.4703 2.95707 35.0813 0.0274048Z" fill="#B9CADA"/>
<path opacity="0.998" fill-rule="evenodd" clip-rule="evenodd" d="M9.78672 8.84033C9.79475 8.84033 9.80303 8.84033 9.81106 8.84033C13.1748 14.6589 16.5505 20.4692 19.9386 26.2714C18.2814 29.0906 16.6179 31.9066 14.9479 34.7191C9.95299 26.1253 4.97029 17.5235 0 8.91337C3.26224 8.88873 6.52448 8.86438 9.78672 8.84033Z" fill="#96AFC7"/>
<path fill-rule="evenodd" clip-rule="evenodd" d="M9.8111 8.84033C16.6277 8.84033 23.4443 8.84033 30.261 8.84033C26.829 14.6576 23.3883 20.468 19.9386 26.2714C16.5505 20.4692 13.1749 14.6589 9.8111 8.84033Z" fill="#0E4F95"/>
<path opacity="0.996" fill-rule="evenodd" clip-rule="evenodd" d="M30.2853 8.84033C33.4664 8.86383 36.6474 8.88817 39.8285 8.91337C38.2259 11.7131 36.6111 14.5046 34.9839 17.2881C33.4238 14.4682 31.8577 11.6523 30.2853 8.84033Z" fill="#0E4F95"/>
<path opacity="0.997" fill-rule="evenodd" clip-rule="evenodd" d="M30.2609 8.84033C30.269 8.84033 30.2772 8.84033 30.2853 8.84033C31.8577 11.6523 33.4238 14.4682 34.9839 17.2881C31.6352 23.1039 28.2756 28.9143 24.905 34.7191C21.5819 34.7515 18.2629 34.7515 14.9479 34.7191C16.6179 31.9066 18.2814 29.0906 19.9386 26.2714C23.3883 20.468 26.829 14.6576 30.2609 8.84033Z" fill="#B9CADA"/>
<path opacity="0.964" fill-rule="evenodd" clip-rule="evenodd" d="M85.9245 10.0076C86.1716 9.97079 86.3379 10.0682 86.4236 10.2997C86.4659 12.7992 86.4659 15.2985 86.4236 17.798C86.4131 18.3747 86.3888 18.951 86.3505 19.5265C86.3362 20.0484 86.1981 20.5353 85.9367 20.9872C85.0498 22.4722 83.7393 23.3121 82.0049 23.5069C79.9213 23.6269 78.3267 22.8114 77.2211 21.0602C76.4898 19.7069 76.3764 18.3029 76.8803 16.8485C77.5907 15.14 78.8525 14.0973 80.666 13.7202C81.5672 13.5724 82.4436 13.6618 83.2952 13.988C83.4805 14.1545 83.509 14.3454 83.3804 14.5601C83.2765 14.6677 83.1509 14.7125 83.0031 14.694C81.2118 14.1121 79.6659 14.4978 78.3654 15.8504C77.3253 17.1392 77.0819 18.5675 77.635 20.1351C78.2536 21.5488 79.3207 22.405 80.8364 22.7035C82.5298 22.9053 83.9134 22.3493 84.9872 21.0359C85.2596 20.6612 85.4464 20.2473 85.5472 19.7943C85.6265 18.7572 85.6672 17.7184 85.6689 16.6781C85.6786 14.5518 85.6786 12.4258 85.6689 10.2997C85.7161 10.1675 85.8013 10.0701 85.9245 10.0076Z" fill="#0E4E95"/>
<path opacity="0.964" fill-rule="evenodd" clip-rule="evenodd" d="M68.8586 13.6349C70.7449 13.5212 72.2664 14.2029 73.4233 15.6799C73.8912 16.3533 74.1673 17.1 74.251 17.9197C74.2673 19.6238 74.2673 21.328 74.251 23.0321C74.1376 23.2532 73.963 23.3304 73.7276 23.2634C73.6008 23.2008 73.5238 23.0996 73.4963 22.9591C73.4883 21.2873 73.48 19.6158 73.472 17.944C73.2763 16.6128 72.5987 15.6108 71.4392 14.9374C69.9811 14.189 68.5366 14.2134 67.1058 15.0104C66.0069 15.694 65.3698 16.68 65.1947 17.9684C65.1866 19.6401 65.1784 21.3117 65.1703 22.9834C65.048 23.2839 64.8411 23.361 64.5495 23.2147C64.4773 23.1636 64.4327 23.0947 64.4156 23.0078C64.3994 21.3199 64.3994 19.6318 64.4156 17.944C64.6097 16.3226 65.409 15.1012 66.8136 14.2801C67.4555 13.929 68.1372 13.7141 68.8586 13.6349Z" fill="#0E4E95"/>
<path opacity="0.965" fill-rule="evenodd" clip-rule="evenodd" d="M56.3209 13.6593C58.0504 13.5607 59.499 14.145 60.6665 15.4121C61.1374 15.9726 61.4458 16.6138 61.5916 17.3354C61.6256 17.5942 61.6499 17.854 61.6646 18.1144C61.7257 19.7857 61.7338 21.4573 61.689 23.1295C61.6374 23.3725 61.4872 23.482 61.2386 23.4582C61.0822 23.4234 60.9807 23.3301 60.9343 23.1782C60.9255 22.2775 60.9295 21.3767 60.9465 20.4759C60.9533 19.4921 60.9167 18.5103 60.8369 17.5302C60.725 16.9006 60.4572 16.3487 60.0335 15.8747C58.9251 14.7127 57.574 14.254 55.9801 14.4992C54.4107 14.8595 53.3517 15.7968 52.803 17.3111C52.3072 19.1832 52.8063 20.7291 54.3003 21.9488C55.5552 22.8091 56.9023 22.9837 58.3415 22.4722C58.6978 22.5599 58.7993 22.7709 58.6459 23.1052C58.6083 23.151 58.5637 23.1875 58.512 23.2147C56.7195 23.8212 55.0803 23.5453 53.5943 22.387C52.2565 21.1987 51.6844 19.7095 51.8779 17.9197C52.197 16.0507 53.2236 14.7402 54.9576 13.988C55.4025 13.8239 55.8569 13.7143 56.3209 13.6593Z" fill="#0E4E95"/>
<path opacity="0.963" fill-rule="evenodd" clip-rule="evenodd" d="M98.3649 17.3113C98.2972 17.2234 98.2078 17.1709 98.0971 17.1531C97.8943 17.1409 97.6915 17.1368 97.4884 17.1409C96.6768 15.2172 95.2241 14.3203 93.1307 14.4508C91.4005 14.7283 90.236 15.69 89.6371 17.3357C89.1778 19.0484 89.5875 20.5132 90.8666 21.73C92.181 22.7943 93.6336 23.0295 95.2243 22.436C95.431 22.3366 95.6338 22.2312 95.833 22.1195C96.1176 21.9203 96.3936 21.7093 96.6607 21.4865C97.106 21.4612 97.2559 21.6601 97.1111 22.083C95.8464 23.2849 94.3491 23.7353 92.6194 23.4341C90.8403 23.0183 89.6189 21.9593 88.9555 20.2571C88.3834 18.4468 88.6918 16.8074 89.8806 15.3394C91.2069 13.9288 92.8259 13.4054 94.7374 13.7691C96.3574 14.1881 97.4977 15.166 98.1579 16.7027C98.2441 16.9006 98.313 17.1034 98.3649 17.3113Z" fill="#0E4F94"/>
<path opacity="0.964" fill-rule="evenodd" clip-rule="evenodd" d="M115.479 13.6593C117.475 13.5597 119.029 14.3307 120.142 15.9721C120.988 17.4216 121.109 18.931 120.507 20.5003C119.876 21.9257 118.817 22.8712 117.33 23.3365C115.678 23.7657 114.177 23.4655 112.826 22.4357C111.223 21.012 110.684 19.255 111.207 17.165C111.922 15.13 113.346 13.9614 115.479 13.6593ZM115.796 14.414C117.623 14.4459 118.942 15.2736 119.752 16.8972C120.394 18.5324 120.158 20.0255 119.046 21.3767C117.749 22.692 116.219 23.0614 114.457 22.4844C113.39 22.0588 112.615 21.3243 112.132 20.2812C111.484 18.6174 111.736 17.108 112.887 15.753C113.685 14.934 114.655 14.4875 115.796 14.414Z" fill="#0E4E95"/>
<path opacity="0.963" fill-rule="evenodd" clip-rule="evenodd" d="M127.068 13.6596C128.793 13.5627 130.217 14.1633 131.34 15.4611C131.431 15.5763 131.512 15.698 131.584 15.8263C131.62 16.2358 131.438 16.394 131.036 16.301C130.985 16.2733 130.94 16.2367 130.902 16.1915C130.061 15.0587 128.929 14.4664 127.506 14.4143C125.853 14.4897 124.619 15.2403 123.805 16.6662C126.451 17.778 129.096 18.8896 131.742 20.0015C131.975 20.0996 132.06 20.2739 131.998 20.5249C131.314 22.0779 130.15 23.0638 128.504 23.4828C126.674 23.8275 125.104 23.3448 123.793 22.0343C123.494 21.711 123.243 21.3538 123.039 20.9631C122.936 20.5307 123.102 20.3481 123.538 20.4153C123.589 20.4346 123.633 20.463 123.672 20.5005C124.588 22.1541 125.996 22.9209 127.895 22.8011C129.333 22.5876 130.404 21.8493 131.109 20.5857C128.431 19.4578 125.753 18.3297 123.075 17.2018C122.936 17.0922 122.883 16.9503 122.917 16.7757C123.514 15.3267 124.556 14.3571 126.045 13.8665C126.385 13.7735 126.726 13.7044 127.068 13.6596Z" fill="#0E4E95"/>
<path opacity="0.961" fill-rule="evenodd" clip-rule="evenodd" d="M100.239 13.7567C100.44 13.7299 100.59 13.8029 100.69 13.9758C102.061 16.6374 103.433 19.2993 104.804 21.961C106.174 19.2949 107.537 16.625 108.894 13.9514C109.121 13.6917 109.349 13.6917 109.576 13.9514C109.623 14.0807 109.623 14.2105 109.576 14.341C108.091 17.246 106.606 20.1514 105.121 23.0565C104.946 23.2247 104.755 23.2449 104.548 23.1173C104.517 23.083 104.489 23.0465 104.463 23.0078C102.962 20.0857 101.46 17.1642 99.9594 14.2436C99.9214 14.0028 100.015 13.8407 100.239 13.7567Z" fill="#0E4E95"/>
<path fill-rule="evenodd" clip-rule="evenodd" d="M97.4884 17.1407C97.6914 17.1365 97.8942 17.1407 98.097 17.1528C98.2078 17.1706 98.2972 17.2232 98.3648 17.3111C98.4795 17.5621 98.4145 17.7529 98.1701 17.8832C95.9871 17.8995 93.8043 17.8995 91.6213 17.8832C91.372 17.7593 91.3031 17.5684 91.4143 17.3111C91.4701 17.239 91.539 17.1862 91.6213 17.1528C93.5769 17.1407 95.5328 17.1365 97.4884 17.1407Z" fill="#EB731E"/>
</svg>
